<mxfile host="app.diagrams.net" agent="Mozilla/5.0 (Windows NT 10.0; Win64; x64) AppleWebKit/537.36 (KHTML, like Gecko) Chrome/134.0.0.0 Safari/537.36" version="26.1.0">
  <diagram name="Page-1" id="FqVP2Kz7Vy-kTqScgBGe">
    <mxGraphModel dx="1434" dy="772" grid="1" gridSize="10" guides="1" tooltips="1" connect="1" arrows="1" fold="1" page="1" pageScale="1" pageWidth="850" pageHeight="1100" math="0" shadow="0">
      <root>
        <mxCell id="0" />
        <mxCell id="1" parent="0" />
        <mxCell id="7Zf0eA3XC2uxdwHDN1mc-1" value="Khách hàng" style="shape=umlActor;verticalLabelPosition=bottom;verticalAlign=top;html=1;outlineConnect=0;" vertex="1" parent="1">
          <mxGeometry x="230" y="340" width="30" height="60" as="geometry" />
        </mxCell>
        <mxCell id="7Zf0eA3XC2uxdwHDN1mc-2" value="Nhân viên văn phòng" style="shape=umlActor;verticalLabelPosition=bottom;verticalAlign=top;html=1;outlineConnect=0;" vertex="1" parent="1">
          <mxGeometry x="210" y="460" width="30" height="60" as="geometry" />
        </mxCell>
        <mxCell id="7Zf0eA3XC2uxdwHDN1mc-4" value="Quản lý sản xuất" style="shape=umlActor;verticalLabelPosition=bottom;verticalAlign=top;html=1;outlineConnect=0;" vertex="1" parent="1">
          <mxGeometry x="210" y="590" width="30" height="60" as="geometry" />
        </mxCell>
        <mxCell id="7Zf0eA3XC2uxdwHDN1mc-5" value="Hệ thống" style="shape=umlActor;verticalLabelPosition=bottom;verticalAlign=top;html=1;outlineConnect=0;" vertex="1" parent="1">
          <mxGeometry x="220" y="700" width="30" height="60" as="geometry" />
        </mxCell>
        <mxCell id="7Zf0eA3XC2uxdwHDN1mc-6" value="Thêm mới khách hàng&amp;nbsp;" style="ellipse;whiteSpace=wrap;html=1;" vertex="1" parent="1">
          <mxGeometry x="360" y="230" width="120" height="80" as="geometry" />
        </mxCell>
        <mxCell id="7Zf0eA3XC2uxdwHDN1mc-7" value="Ghi nhận đơn hàng" style="ellipse;whiteSpace=wrap;html=1;" vertex="1" parent="1">
          <mxGeometry x="360" y="350" width="120" height="80" as="geometry" />
        </mxCell>
        <mxCell id="7Zf0eA3XC2uxdwHDN1mc-8" value="Tạo hóa đơn tự động " style="ellipse;whiteSpace=wrap;html=1;" vertex="1" parent="1">
          <mxGeometry x="360" y="440" width="120" height="80" as="geometry" />
        </mxCell>
        <mxCell id="7Zf0eA3XC2uxdwHDN1mc-9" value="Chỉnh sửa đơn hàng" style="ellipse;whiteSpace=wrap;html=1;" vertex="1" parent="1">
          <mxGeometry x="360" y="540" width="120" height="80" as="geometry" />
        </mxCell>
        <mxCell id="7Zf0eA3XC2uxdwHDN1mc-11" value="In hoặc gửi hóa đơn qua email" style="ellipse;whiteSpace=wrap;html=1;" vertex="1" parent="1">
          <mxGeometry x="360" y="660" width="120" height="80" as="geometry" />
        </mxCell>
        <mxCell id="7Zf0eA3XC2uxdwHDN1mc-12" value="Xem danh sách đơn hàng" style="ellipse;whiteSpace=wrap;html=1;" vertex="1" parent="1">
          <mxGeometry x="360" y="760" width="120" height="80" as="geometry" />
        </mxCell>
      </root>
    </mxGraphModel>
  </diagram>
</mxfile>
